<svg width="300" height="300" viewBox="0 0 300 300" fill="none" xmlns="http://www.w3.org/2000/svg">
<g clip-path="url(#clip0_17_127)">
<rect width="300" height="300" rx="40" fill="black"/>
<path fill-rule="evenodd" clip-rule="evenodd" d="M68.4645 119.036L102.036 85.4645C102.973 84.5268 104.245 84 105.571 84H193.929C195.255 84 196.527 84.5268 197.464 85.4645L231.036 119.036C231.973 119.973 232.5 121.245 232.5 122.571V176.429C232.5 177.755 231.973 179.027 231.036 179.964L197.464 213.536C196.527 214.473 195.255 215 193.929 215L105.571 215C104.245 215 102.973 214.473 102.036 213.536L68.4645 179.964C67.5268 179.027 67 177.755 67 176.429L67 122.571C67 121.245 67.5268 119.973 68.4645 119.036ZM181.5 99.5H118C101.431 99.5 88 112.931 88 129.5L88 169.5C88 186.069 101.431 199.5 118 199.5H181.5C198.069 199.5 211.5 186.069 211.5 169.5V129.5C211.5 112.931 198.069 99.5 181.5 99.5Z" fill="#D9D9D9"/>
</g>
<defs>
<clipPath id="clip0_17_127">
<rect width="300" height="300" fill="white"/>
</clipPath>
</defs>
</svg>
