<svg width="900" height="300" viewBox="0 0 900 300" fill="none" xmlns="http://www.w3.org/2000/svg">
<path d="M269 123.571V216H290V130.5C290 113.931 303.431 100.5 320 100.5H383.5C400.069 100.5 413.5 113.931 413.5 130.5V153.661C413.5 154.86 413.141 156.03 412.47 157.023L404.974 168.103C403.114 170.853 400.011 172.5 396.692 172.5H305.5V190.5H394.609C397.695 190.5 400.608 189.075 402.503 186.639L404.553 184.003C407.476 180.245 413.5 182.312 413.5 187.073V216H434.5V123.571C434.5 122.245 433.973 120.973 433.036 120.036L399.464 86.4645C398.527 85.5268 397.255 85 395.929 85H307.571C306.245 85 304.973 85.5268 304.036 86.4645L270.464 120.036C269.527 120.973 269 122.245 269 123.571Z" fill="black"/>
<path d="M464 123.571V216H485V130.5C485 113.931 498.431 100.5 515 100.5H578.5C595.069 100.5 608.5 113.931 608.5 130.5V153.661C608.5 154.86 608.141 156.03 607.47 157.023L599.974 168.103C598.114 170.853 595.011 172.5 591.692 172.5H500.5V190.5H590.358C593.01 190.5 595.554 189.446 597.429 187.571L628.036 156.964C628.973 156.027 629.5 154.755 629.5 153.429V123.571C629.5 122.245 628.973 120.973 628.036 120.036L594.464 86.4645C593.527 85.5268 592.255 85 590.929 85H502.571C501.245 85 499.973 85.5268 499.036 86.4645L465.464 120.036C464.527 120.973 464 122.245 464 123.571Z" fill="black"/>
<path d="M694.192 214.764L660.709 185.494C659.623 184.545 659 183.172 659 181.73L659 175H677.875C677.875 189.083 689.292 200.5 703.375 200.5H783.891C796.256 200.5 806.334 190.58 806.529 178.216C806.561 176.161 805.754 174.182 804.294 172.736L800.923 169.396C799.051 167.541 796.521 166.5 793.885 166.5H685.81C683.356 166.5 680.988 165.598 679.156 163.965L660.673 147.491C659.609 146.543 659 145.185 659 143.759V119.852C659 118.426 659.609 117.068 660.674 116.119L694.184 86.2666C695.1 85.4508 696.284 85 697.51 85H786.425C787.751 85 789.022 85.5268 789.96 86.4645L823.536 120.04C824.473 120.978 825 122.249 825 123.575L825 138.5H803.996V130.5C803.996 113.931 790.564 100.5 773.996 100.5H708.207C691.638 100.5 678.207 113.931 678.207 130.5V137.301C678.207 139.382 678.856 141.411 680.063 143.105L683.056 147.304C684.933 149.937 687.966 151.5 691.199 151.5H804.877C807.783 151.5 810.545 152.764 812.445 154.963L823.784 168.092C824.568 169 825 170.16 825 171.36V181.734C825 183.174 824.379 184.544 823.296 185.494L789.91 214.76C788.998 215.559 787.827 216 786.614 216H697.483C696.273 216 695.104 215.561 694.192 214.764Z" fill="black"/>
<path d="M239 177.433L239 85L218.063 85L218.063 170.5C218.063 187.069 204.632 200.5 188.063 200.5L124.937 200.5C108.368 200.5 94.9365 187.069 94.9365 170.5L94.9365 159L74 159L74 177.433C74 178.757 74.5247 180.026 75.4591 180.964L108.924 214.53C109.862 215.471 111.137 216 112.465 216L200.535 216C201.863 216 203.138 215.471 204.076 214.53L237.541 180.964C238.475 180.026 239 178.757 239 177.433Z" fill="black"/>
</svg>
